<svg width="51" height="47" viewBox="0 0 51 47" fill="none" xmlns="http://www.w3.org/2000/svg">
<path fill-rule="evenodd" clip-rule="evenodd" d="M38.6259 25.3424V35.1415H11.52V25.3424C7.1153 25.3424 3.72706 21.9635 3.72706 17.5708C3.72706 13.1781 7.1153 9.79908 11.52 9.79908C14.5694 9.79908 17.28 11.4886 18.6353 14.1918L22.0235 12.5023C21.0071 10.8128 19.9906 9.12328 18.2965 8.10958C19.6518 5.74429 22.0235 4.05479 25.073 4.05479C29.4777 4.05479 32.8659 7.43378 32.8659 11.8265C32.8659 13.1781 32.5271 14.5297 31.8494 15.8813L35.2377 17.9087C36.2541 16.2192 36.9318 14.1918 36.9318 11.8265C36.9318 11.1507 36.9318 10.8128 36.9318 10.137C37.6094 9.79908 38.2871 9.79908 38.9647 9.79908C43.3694 9.79908 46.7577 13.1781 46.7577 17.5708C46.7577 21.9635 43.0306 25.3424 38.6259 25.3424ZM38.6259 42.9132H11.52V39.1963H38.6259V42.9132ZM38.6259 6.08219C37.6094 6.08219 36.593 6.42009 35.2377 6.42009C33.2047 2.70319 29.4777 0 25.073 0C20.6682 0 16.6024 2.36529 14.9082 6.42009C13.8918 6.08219 12.8753 6.08219 11.52 6.08219C5.08235 6.08219 0 11.1507 0 17.5708C0 22.6393 3.38824 27.0319 7.79295 28.3835V46.2922H42.6918V28.7214C47.0965 27.0319 50.4847 22.9772 50.4847 17.9087C50.4847 11.4886 45.0635 6.08219 38.6259 6.08219ZM21.3459 31.0867H17.6188V23.653H21.3459V31.0867ZM32.8659 31.0867H29.1388V23.653H32.8659V31.0867Z" fill="#D04F4F"/>
</svg>
